<?xml version="1.0" encoding="UTF-8" standalone="no"?>
<svg
   width="72"
   height="70"
   viewBox="0 0 72 70"
   fill="none"
   version="1.1"
   id="svg4"
   sodipodi:docname="iconlogo.svg"
   inkscape:export-filename="iconlogo.jpg"
   inkscape:export-xdpi="96"
   inkscape:export-ydpi="96"
   inkscape:version="1.3.2 (091e20e, 2023-11-25, custom)"
   xmlns:inkscape="http://www.inkscape.org/namespaces/inkscape"
   xmlns:sodipodi="http://sodipodi.sourceforge.net/DTD/sodipodi-0.dtd"
   xmlns="http://www.w3.org/2000/svg"
   xmlns:svg="http://www.w3.org/2000/svg">
  <sodipodi:namedview
     id="namedview4"
     pagecolor="#ffffff"
     bordercolor="#000000"
     borderopacity="0.25"
     inkscape:showpageshadow="2"
     inkscape:pageopacity="0.0"
     inkscape:pagecheckerboard="0"
     inkscape:deskcolor="#d1d1d1"
     inkscape:zoom="11.1"
     inkscape:cx="36.036036"
     inkscape:cy="35"
     inkscape:window-width="1920"
     inkscape:window-height="991"
     inkscape:window-x="-9"
     inkscape:window-y="-9"
     inkscape:window-maximized="1"
     inkscape:current-layer="svg4" />
  <path
     d="M49.4418 40.8424C50.2112 39.0476 50.6367 37.073 50.6367 35C50.6367 26.7397 43.8781 20.0434 35.5411 20.0434C27.204 20.0434 20.4454 26.7397 20.4454 35C20.4454 43.2602 27.204 49.9565 35.5411 49.9565C38.8972 49.9565 42.3813 49.0217 44.2683 47.0358C46.1552 45.0503 69.5063 66.3152 68.7987 66.3152H35.0694M35.5411 66.3152C18.0853 66.3152 3.93457 52.2948 3.93457 35C3.93457 17.705 18.0853 3.68475 35.5411 3.68475C52.9969 3.68475 67.1476 17.705 67.1476 35C67.1476 43.8538 64.854 50.3369 58.8922 56.0326"
     stroke="url(#paint0_linear_12_52)"
     stroke-width="6"
     stroke-linecap="round"
     id="path1" />
  <defs
     id="defs4">
    <linearGradient
       id="paint0_linear_12_52"
       x1="69.9781"
       y1="69.5869"
       x2="11.2964"
       y2="13.1909"
       gradientUnits="userSpaceOnUse">
      <stop
         stop-color="#06163A"
         id="stop1" />
      <stop
         offset="0.265"
         stop-color="#462775"
         id="stop2" />
      <stop
         offset="0.705"
         stop-color="#4395AD"
         id="stop3" />
      <stop
         offset="1"
         stop-color="#6BE9D1"
         id="stop4" />
    </linearGradient>
  </defs>
</svg>
